<svg width="42" height="42" viewBox="0 0 42 42" fill="none" xmlns="http://www.w3.org/2000/svg">
<path fill-rule="evenodd" clip-rule="evenodd" d="M21 7C18.5319 6.99945 16.1076 7.65137 13.9726 8.88969C11.8377 10.128 10.068 11.9087 8.84304 14.0513C7.61805 16.194 6.98125 18.6223 6.99718 21.0904C7.01312 23.5584 7.68121 25.9784 8.93377 28.105L9.92952 29.3615L8.70977 33.4897L12.7698 32.3558L13.433 32.781C15.2634 33.9561 17.3424 34.6886 19.5052 34.9203C21.668 35.1521 23.855 34.8766 25.8928 34.1159C27.9306 33.3552 29.7631 32.1301 31.245 30.5379C32.7269 28.9456 33.8173 27.0299 34.4299 24.9428C35.0425 22.8557 35.1604 20.6546 34.7741 18.514C34.3879 16.3734 33.5082 14.3523 32.2048 12.6109C30.9014 10.8695 29.2101 9.45576 27.2652 8.48182C25.3203 7.50788 23.1752 7.00053 21 7ZM3.50002 21C3.50002 11.3348 11.3348 3.5 21 3.5C30.6653 3.5 38.5 11.3348 38.5 21C38.5 30.6652 30.6653 38.5 21 38.5C17.917 38.5044 14.8881 37.691 12.222 36.1427L3.56302 38.5612L6.05852 30.1105L6.04802 30.0982L5.99027 30.002C4.3567 27.2838 3.4957 24.1713 3.50002 21Z" fill="#848181"/>
<path d="M29.2863 23.6108C29.2198 23.5793 26.6665 22.3228 26.2133 22.1583C26.0241 22.0801 25.8228 22.0357 25.6183 22.027C25.2753 22.027 24.9848 22.1985 24.7608 22.5363C24.5053 22.916 23.7335 23.8173 23.4955 24.0868C23.464 24.1218 23.422 24.1655 23.3958 24.1655C23.373 24.1655 22.9775 24.0028 22.8585 23.9503C20.1215 22.7603 18.0443 19.9025 17.759 19.4195C17.7188 19.3495 17.717 19.3198 17.717 19.3198C17.7258 19.283 17.8185 19.1903 17.8658 19.143C18.0058 19.0048 18.1563 18.8245 18.3015 18.6478L18.5063 18.4028C18.718 18.1578 18.8125 17.9653 18.921 17.7465L18.9788 17.631C19.0654 17.4558 19.1075 17.262 19.1013 17.0667C19.0952 16.8713 19.0411 16.6805 18.9438 16.511C18.8843 16.3903 17.8063 13.7898 17.6925 13.5168C17.416 12.857 17.052 12.5508 16.5463 12.5508C16.499 12.5508 16.5463 12.5508 16.3503 12.5595C16.1105 12.5683 14.805 12.7415 14.2275 13.1038C13.615 13.4888 12.5825 14.7208 12.5825 16.8838C12.5825 18.8298 13.8163 20.6673 14.3465 21.3655L14.4183 21.4705C16.45 24.4368 18.9823 26.6348 21.5478 27.6603C24.0188 28.6473 25.1895 28.7628 25.8545 28.7628C26.1345 28.7628 26.3585 28.74 26.5545 28.7208L26.6805 28.7085C27.5345 28.6333 29.4105 27.6603 29.8375 26.4755C30.1735 25.541 30.2628 24.5208 30.0388 24.1498C29.8848 23.8978 29.6205 23.7718 29.2863 23.6108Z" fill="#848181"/>
</svg>
