<svg width="49" height="49" viewBox="0 0 49 49" fill="none" xmlns="http://www.w3.org/2000/svg">
<path d="M17.9585 7.32341L17.4854 9.76857C17.3923 10.2493 17.197 10.7044 16.9128 11.1031C16.6285 11.5018 16.262 11.8349 15.838 12.0798C15.4139 12.3246 14.9422 12.4756 14.4548 12.5224C13.9674 12.5693 13.4756 12.5109 13.0127 12.3513L10.6545 11.5355C10.1053 12.2577 9.64871 13.0459 9.2955 13.8816L11.1831 15.5206C12.752 16.8844 12.752 19.3223 11.1831 20.6861L9.2955 22.325C9.65274 23.1682 10.1057 23.9495 10.6545 24.6688L13.0127 23.8554C13.4756 23.6958 13.9674 23.6374 14.4548 23.6843C14.9422 23.7311 15.4139 23.8821 15.838 24.1269C16.262 24.3718 16.6285 24.7048 16.9128 25.1036C17.197 25.5023 17.3923 25.9574 17.4854 26.4381L17.961 28.8833C18.862 28.9934 19.7732 28.9926 20.674 28.8808L21.1471 26.4381C21.2403 25.9574 21.4356 25.5023 21.7198 25.1036C22.004 24.7048 22.3706 24.3718 22.7946 24.1269C23.2187 23.8821 23.6903 23.7311 24.1777 23.6843C24.6652 23.6374 25.1569 23.6958 25.6199 23.8554L27.9636 24.664C28.514 23.9431 28.9678 23.1586 29.325 22.3106L27.4519 20.6861C27.0821 20.365 26.7856 19.9683 26.5823 19.5227C26.3791 19.0771 26.2739 18.5931 26.2739 18.1033C26.2739 17.6136 26.3791 17.1296 26.5823 16.684C26.7856 16.2384 27.0821 15.8417 27.4519 15.5206L29.325 13.8937C28.9716 13.0553 28.5142 12.2646 27.9636 11.5403L25.6223 12.3489C25.1592 12.5089 24.6672 12.5676 24.1795 12.5209C23.6918 12.4743 23.2198 12.3234 22.7955 12.0785C22.3711 11.8336 22.0044 11.5004 21.72 11.1015C21.4356 10.7025 21.2402 10.2472 21.1471 9.76616L20.674 7.32824C19.7725 7.21554 18.8605 7.21391 17.9585 7.32341ZM16.6985 5.08343C18.4275 4.73717 20.2081 4.73882 21.9364 5.08826C22.1713 5.13512 22.3869 5.2508 22.5559 5.42059C22.7248 5.59038 22.8394 5.80659 22.8851 6.0417L23.5175 9.30754C23.5449 9.44894 23.6023 9.58282 23.6859 9.70012C23.7695 9.81743 23.8772 9.91543 24.0019 9.9875C24.1266 10.0596 24.2654 10.1041 24.4087 10.1179C24.5521 10.1318 24.6968 10.1147 24.833 10.0679L27.9709 8.98409C28.1972 8.90643 28.4414 8.89778 28.6727 8.95924C28.9039 9.0207 29.1116 9.14949 29.2695 9.32926C30.4233 10.6375 31.3236 12.1775 31.8933 13.8696C31.9696 14.0962 31.9768 14.3405 31.9141 14.5712C31.8513 14.802 31.7214 15.0089 31.5409 15.1658L29.0329 17.343C28.924 17.4375 28.8367 17.5543 28.7768 17.6855C28.7169 17.8166 28.686 17.9591 28.686 18.1033C28.686 18.2475 28.7169 18.39 28.7768 18.5212C28.8367 18.6524 28.924 18.7692 29.0329 18.8637L31.5433 21.0385C31.7234 21.1956 31.8528 21.4027 31.9151 21.6334C31.9775 21.8642 31.9698 22.1083 31.8933 22.3347C31.3295 24.0084 30.4375 25.5528 29.2695 26.8774C29.1113 27.0568 28.9035 27.1851 28.6723 27.2461C28.4411 27.3071 28.1969 27.2981 27.9709 27.2202L24.833 26.1364C24.6968 26.0895 24.5521 26.0725 24.4087 26.0863C24.2654 26.1002 24.1266 26.1447 24.0019 26.2168C23.8772 26.2888 23.7695 26.3868 23.6859 26.5041C23.6023 26.6214 23.5449 26.7553 23.5175 26.8967L22.8851 30.165C22.8396 30.3998 22.7253 30.6157 22.5569 30.7855C22.3884 30.9553 22.1733 31.0711 21.9389 31.1184C20.2105 31.4679 18.4299 31.4695 16.701 31.1232C16.4653 31.0767 16.2489 30.9608 16.0795 30.7905C15.9101 30.6202 15.7953 30.4033 15.7499 30.1674L15.1175 26.8967C15.0901 26.7553 15.0327 26.6214 14.9491 26.5041C14.8655 26.3868 14.7578 26.2888 14.633 26.2168C14.5083 26.1447 14.3696 26.1002 14.2263 26.0863C14.0829 26.0725 13.9382 26.0895 13.802 26.1364L10.6472 27.225C10.4211 27.3029 10.177 27.312 9.94582 27.2509C9.71462 27.1899 9.50675 27.0616 9.3486 26.8822C8.18193 25.5612 7.29 24.021 6.72483 22.3516C6.64853 22.1249 6.64129 21.8807 6.70404 21.6499C6.76678 21.4191 6.89668 21.2122 7.07724 21.0554L9.59963 18.8637C9.70815 18.7692 9.79515 18.6525 9.85477 18.5216C9.91438 18.3906 9.94523 18.2484 9.94523 18.1045C9.94523 17.9607 9.91438 17.8184 9.85477 17.6875C9.79515 17.5565 9.70815 17.4399 9.59963 17.3454L7.07724 15.1561C6.89621 14.9991 6.76602 14.7918 6.70326 14.5605C6.6405 14.3292 6.64801 14.0845 6.72483 13.8575C7.29448 12.1679 8.19723 10.6327 9.3486 9.32443C9.50675 9.14508 9.71462 9.01675 9.94582 8.95573C10.177 8.8947 10.4211 8.90374 10.6472 8.98168L13.802 10.0703C13.9382 10.1171 14.0829 10.1342 14.2263 10.1203C14.3696 10.1065 14.5083 10.062 14.633 9.98992C14.7578 9.91784 14.8655 9.81984 14.9491 9.70254C15.0327 9.58523 15.0901 9.45136 15.1175 9.30995L15.7499 6.0417C15.7952 5.80614 15.9096 5.58941 16.0785 5.41916C16.2475 5.24891 16.4633 5.13287 16.6985 5.08584M28.2147 29.6822C27.9919 29.599 27.7483 29.5895 27.5198 29.6551C27.2912 29.7207 27.0897 29.858 26.945 30.0467C26.6071 30.5166 26.3174 31.0178 26.0761 31.5505C25.9838 31.7699 25.9645 32.0131 26.021 32.2443C26.0775 32.4755 26.2068 32.6825 26.3899 32.8346L27.9347 34.1743C28.053 34.2774 28.1478 34.4046 28.2127 34.5474C28.2777 34.6902 28.3113 34.8453 28.3113 35.0022C28.3113 35.1591 28.2777 35.3142 28.2127 35.457C28.1478 35.5998 28.053 35.727 27.9347 35.8301L26.3899 37.1698C26.2068 37.3219 26.0775 37.5288 26.021 37.76C25.9645 37.9912 25.9838 38.2345 26.0761 38.4539C26.3174 38.9865 26.6071 39.4878 26.945 39.9577C27.0894 40.1468 27.2907 40.2845 27.5193 40.3506C27.7479 40.4166 27.9917 40.4075 28.2147 40.3246L30.1457 39.6584C30.2941 39.6075 30.4517 39.589 30.6078 39.6042C30.764 39.6194 30.915 39.6678 31.0509 39.7462C31.1867 39.8247 31.3042 39.9313 31.3954 40.059C31.4866 40.1866 31.5493 40.3323 31.5795 40.4863L31.9657 42.4897C32.0622 42.9725 32.434 43.3587 32.9215 43.407C33.4986 43.4649 34.08 43.4649 34.657 43.407C34.8933 43.3766 35.1136 43.271 35.2853 43.1059C35.457 42.9407 35.571 42.7247 35.6105 42.4897L35.9967 40.4863C36.0264 40.3319 36.089 40.1856 36.1803 40.0575C36.2715 39.9295 36.3893 39.8225 36.5255 39.744C36.6617 39.6654 36.8133 39.6171 36.9699 39.6024C37.1264 39.5876 37.2844 39.6067 37.4329 39.6584L39.3639 40.3246C39.5869 40.4075 39.8307 40.4166 40.0593 40.3506C40.2878 40.2845 40.4892 40.1468 40.6336 39.9577C40.9715 39.4878 41.2611 38.9865 41.5025 38.4539C41.5947 38.2345 41.614 37.9912 41.5575 37.76C41.501 37.5288 41.3717 37.3219 41.1887 37.1698L39.6439 35.8301C39.5256 35.727 39.4308 35.5998 39.3658 35.457C39.3009 35.3142 39.2673 35.1591 39.2673 35.0022C39.2673 34.8453 39.3009 34.6902 39.3658 34.5474C39.4308 34.4046 39.5256 34.2774 39.6439 34.1743L41.1887 32.8346C41.3717 32.6825 41.501 32.4755 41.5575 32.2443C41.614 32.0131 41.5947 31.7699 41.5025 31.5505C41.2611 31.0178 40.9715 30.5166 40.6336 30.0467C40.4892 29.8576 40.2878 29.7198 40.0593 29.6538C39.8307 29.5877 39.5869 29.5969 39.3639 29.6798L37.4329 30.346C37.2845 30.3973 37.1268 30.4161 36.9705 30.4011C36.8143 30.3861 36.663 30.3377 36.5271 30.2592C36.3911 30.1807 36.2736 30.0739 36.1825 29.946C36.0914 29.8182 36.0289 29.6722 35.9991 29.5181L35.6129 27.5147C35.5733 27.2794 35.4589 27.0631 35.2867 26.8979C35.1146 26.7327 34.8938 26.6273 34.657 26.5974C34.08 26.5395 33.4986 26.5395 32.9215 26.5974C32.6852 26.6278 32.465 26.7334 32.2933 26.8985C32.1216 27.0637 32.0076 27.2797 31.9681 27.5147L31.5795 29.5181C31.5494 29.6723 31.4866 29.8183 31.3952 29.9462C31.3039 30.074 31.1862 30.1808 31.05 30.2593C30.9139 30.3378 30.7625 30.3861 30.6061 30.4011C30.4496 30.4161 30.2918 30.3973 30.1433 30.346L28.2147 29.6822ZM33.7929 37.4135C33.1527 37.4135 32.5388 37.1592 32.0861 36.7066C31.6334 36.2539 31.3791 35.6399 31.3791 34.9998C31.3791 34.3596 31.6334 33.7456 32.0861 33.293C32.5388 32.8403 33.1527 32.586 33.7929 32.586C34.4331 32.586 35.047 32.8403 35.4997 33.293C35.9524 33.7456 36.2067 34.3596 36.2067 34.9998C36.2067 35.6399 35.9524 36.2539 35.4997 36.7066C35.047 37.1592 34.4331 37.4135 33.7929 37.4135ZM16.8965 18.1033C16.8965 17.4632 17.1508 16.8492 17.6035 16.3965C18.0561 15.9439 18.6701 15.6896 19.3103 15.6896C19.9504 15.6896 20.5644 15.9439 21.0171 16.3965C21.4697 16.8492 21.724 17.4632 21.724 18.1033C21.724 18.7435 21.4697 19.3575 21.0171 19.8101C20.5644 20.2628 19.9504 20.5171 19.3103 20.5171C18.6701 20.5171 18.0561 20.2628 17.6035 19.8101C17.1508 19.3575 16.8965 18.7435 16.8965 18.1033ZM19.3103 13.2758C18.0299 13.2758 16.802 13.7844 15.8967 14.6897C14.9913 15.5951 14.4827 16.823 14.4827 18.1033C14.4827 19.3837 14.9913 20.6116 15.8967 21.5169C16.802 22.4223 18.0299 22.9309 19.3103 22.9309C20.5906 22.9309 21.8185 22.4223 22.7238 21.5169C23.6292 20.6116 24.1378 19.3837 24.1378 18.1033C24.1378 16.823 23.6292 15.5951 22.7238 14.6897C21.8185 13.7844 20.5906 13.2758 19.3103 13.2758Z" fill="#848181"/>
</svg>
