<svg width="49" height="49" viewBox="0 0 49 49" fill="none" xmlns="http://www.w3.org/2000/svg">
<path d="M25.6464 6.03443C24.8462 6.03443 24.0788 6.35232 23.5129 6.91816C22.9471 7.48399 22.6292 8.25144 22.6292 9.05165V12.0689H14.709C14.4089 12.0689 14.1211 12.1881 13.9089 12.4003C13.6967 12.6125 13.5775 12.9002 13.5775 13.2003V21.1205H10.5603C9.7601 21.1205 8.99266 21.4384 8.42682 22.0043C7.86098 22.5701 7.5431 23.3375 7.5431 24.1378C7.5431 24.938 7.86098 25.7054 8.42682 26.2712C8.99266 26.8371 9.7601 27.155 10.5603 27.155H13.5775V35.0752C13.5775 35.6997 14.0844 36.2066 14.709 36.2066H22.6292V39.2239C22.6292 40.0241 22.9471 40.7915 23.5129 41.3574C24.0788 41.9232 24.8462 42.2411 25.6464 42.2411C26.4466 42.2411 27.2141 41.9232 27.7799 41.3574C28.3458 40.7915 28.6636 40.0241 28.6636 39.2239V36.2066H36.5838C36.8839 36.2066 37.1717 36.0874 37.3839 35.8752C37.5961 35.6631 37.7153 35.3753 37.7153 35.0752V30.1722H36.2067C34.6063 30.1722 33.0714 29.5364 31.9397 28.4047C30.808 27.2731 30.1723 25.7382 30.1723 24.1378C30.1723 22.5373 30.808 21.0024 31.9397 19.8708C33.0714 18.7391 34.6063 18.1033 36.2067 18.1033H37.7153V13.2003C37.7153 12.9002 37.5961 12.6125 37.3839 12.4003C37.1717 12.1881 36.8839 12.0689 36.5838 12.0689H28.6636V9.05165C28.6636 8.25144 28.3458 7.48399 27.7799 6.91816C27.2141 6.35232 26.4466 6.03443 25.6464 6.03443ZM19.612 9.05165C19.612 7.45122 20.2477 5.91634 21.3794 4.78466C22.5111 3.65298 24.046 3.01721 25.6464 3.01721C27.2469 3.01721 28.7817 3.65298 29.9134 4.78466C31.0451 5.91634 31.6809 7.45122 31.6809 9.05165H36.5838C37.1287 9.05165 37.6681 9.15896 38.1715 9.36745C38.6748 9.57594 39.1322 9.88153 39.5174 10.2668C39.9026 10.652 40.2082 11.1094 40.4167 11.6127C40.6252 12.116 40.7325 12.6555 40.7325 13.2003V21.1205H36.2067C35.4065 21.1205 34.639 21.4384 34.0732 22.0043C33.5074 22.5701 33.1895 23.3375 33.1895 24.1378C33.1895 24.938 33.5074 25.7054 34.0732 26.2712C34.639 26.8371 35.4065 27.155 36.2067 27.155H40.7325V35.0752C40.7325 36.1755 40.2954 37.2307 39.5174 38.0087C38.7394 38.7868 37.6841 39.2239 36.5838 39.2239H31.6809C31.6809 40.8243 31.0451 42.3592 29.9134 43.4908C28.7817 44.6225 27.2469 45.2583 25.6464 45.2583C24.046 45.2583 22.5111 44.6225 21.3794 43.4908C20.2477 42.3592 19.612 40.8243 19.612 39.2239H14.709C13.6087 39.2239 12.5535 38.7868 11.7754 38.0087C10.9974 37.2307 10.5603 36.1755 10.5603 35.0752V30.1722C8.95989 30.1722 7.425 29.5364 6.29333 28.4047C5.16165 27.2731 4.52588 25.7382 4.52588 24.1378C4.52588 22.5373 5.16165 21.0024 6.29333 19.8708C7.425 18.7391 8.95989 18.1033 10.5603 18.1033V13.2003C10.5603 12.6555 10.6676 12.116 10.8761 11.6127C11.0846 11.1094 11.3902 10.652 11.7754 10.2668C12.5535 9.48874 13.6087 9.05165 14.709 9.05165H19.612Z" fill="#848181"/>
</svg>
