<svg width="42" height="42" viewBox="0 0 42 42" fill="none" xmlns="http://www.w3.org/2000/svg">
<path d="M21 38.5C21 38.5 7 28 7 17.5C7 8.75 14 3.5 21 3.5C28 3.5 35 8.75 35 17.5C35 28 21 38.5 21 38.5ZM21 22.75C22.3924 22.75 23.7277 22.1969 24.7123 21.2123C25.6969 20.2277 26.25 18.8924 26.25 17.5C26.25 16.1076 25.6969 14.7723 24.7123 13.7877C23.7277 12.8031 22.3924 12.25 21 12.25C19.6076 12.25 18.2723 12.8031 17.2877 13.7877C16.3031 14.7723 15.75 16.1076 15.75 17.5C15.75 18.8924 16.3031 20.2277 17.2877 21.2123C18.2723 22.1969 19.6076 22.75 21 22.75Z" stroke="#848181" stroke-width="2"/>
</svg>
