<svg width="49" height="49" viewBox="0 0 49 49" fill="none" xmlns="http://www.w3.org/2000/svg">
<path d="M12.0689 44.2526C10.9626 44.2526 10.0158 43.859 9.22867 43.0718C8.44151 42.2847 8.04726 41.3372 8.04592 40.2296V36.2066C8.04592 35.6367 8.23902 35.1593 8.62523 34.7745C9.01143 34.3896 9.48882 34.1965 10.0574 34.1952C10.626 34.1938 11.104 34.3869 11.4916 34.7745C11.8791 35.162 12.0716 35.6394 12.0689 36.2066V40.2296H36.2066V36.2066C36.2066 35.6367 36.3997 35.1593 36.7859 34.7745C37.1722 34.3896 37.6495 34.1965 38.2181 34.1952C38.7867 34.1938 39.2648 34.3869 39.6523 34.7745C40.0399 35.162 40.2323 35.6394 40.2296 36.2066V40.2296C40.2296 41.3359 39.836 42.2833 39.0489 43.0718C38.2617 43.8603 37.3143 44.2539 36.2066 44.2526H12.0689ZM8.04592 8.04591C8.04592 6.9396 8.44017 5.99286 9.22867 5.2057C10.0172 4.41854 10.9639 4.02429 12.0689 4.02295H26.5013C27.0376 4.02295 27.5492 4.12352 28.036 4.32467C28.5228 4.52582 28.9499 4.81078 29.3173 5.17955L39.073 14.9352C39.4418 15.304 39.7267 15.7318 39.9279 16.2186C40.129 16.7053 40.2296 17.2162 40.2296 17.7513V20.1148C40.2296 20.6847 40.0365 21.1628 39.6503 21.549C39.2641 21.9352 38.7867 22.1276 38.2181 22.1263C37.6495 22.1249 37.1722 21.9318 36.7859 21.547C36.3997 21.1621 36.2066 20.6847 36.2066 20.1148V18.1033H28.1607C27.5908 18.1033 27.1134 17.9102 26.7285 17.524C26.3437 17.1378 26.1506 16.6604 26.1492 16.0918V8.04591H12.0689V20.1148C12.0689 20.6847 11.8758 21.1628 11.4896 21.549C11.1034 21.9352 10.626 22.1276 10.0574 22.1263C9.48882 22.1249 9.01143 21.9318 8.62523 21.547C8.23902 21.1621 8.04592 20.6847 8.04592 20.1148V8.04591ZM44.2526 30.1722H4.02296C3.45304 30.1722 2.97565 29.9791 2.59079 29.5929C2.20592 29.2067 2.01282 28.7293 2.01148 28.1607C2.01014 27.5921 2.20324 27.1147 2.59079 26.7285C2.97833 26.3423 3.45572 26.1492 4.02296 26.1492H44.2526C44.8225 26.1492 45.3005 26.3423 45.6867 26.7285C46.073 27.1147 46.2654 27.5921 46.264 28.1607C46.2627 28.7293 46.0696 29.2074 45.6847 29.5949C45.2999 29.9824 44.8225 30.1749 44.2526 30.1722Z" fill="#848181"/>
</svg>
