<svg width="49" height="49" viewBox="0 0 49 49" fill="none" xmlns="http://www.w3.org/2000/svg">
<path d="M4.02295 10.0574V6.03443C4.02295 4.92812 4.4172 3.98138 5.2057 3.19423C5.9942 2.40707 6.94094 2.01282 8.04591 2.01147H12.0689C12.6388 2.01147 13.1168 2.20458 13.5031 2.59078C13.8893 2.97699 14.0817 3.45438 14.0803 4.02295C14.079 4.59153 13.8859 5.06959 13.501 5.45714C13.1162 5.84469 12.6388 6.03712 12.0689 6.03443H8.04591V10.0574C8.04591 10.6273 7.85281 11.1054 7.4666 11.4916C7.0804 11.8778 6.60301 12.0702 6.03443 12.0689C5.46585 12.0675 4.98846 11.8744 4.60226 11.4896C4.21605 11.1047 4.02295 10.6273 4.02295 10.0574ZM40.2296 10.0574V6.03443H36.2066C35.6367 6.03443 35.1593 5.84133 34.7745 5.45513C34.3896 5.06892 34.1965 4.59153 34.1952 4.02295C34.1938 3.45438 34.3869 2.97699 34.7745 2.59078C35.162 2.20458 35.6394 2.01147 36.2066 2.01147H40.2296C41.3359 2.01147 42.2833 2.40572 43.0718 3.19423C43.8603 3.98273 44.2539 4.92946 44.2526 6.03443V10.0574C44.2526 10.6273 44.0594 11.1054 43.6732 11.4916C43.287 11.8778 42.8097 12.0702 42.2411 12.0689C41.6725 12.0675 41.1951 11.8744 40.8089 11.4896C40.4227 11.1047 40.2296 10.6273 40.2296 10.0574ZM4.02295 42.2411V38.2181C4.02295 37.6482 4.21605 37.1708 4.60226 36.7859C4.98846 36.4011 5.46585 36.208 6.03443 36.2066C6.60301 36.2053 7.08107 36.3984 7.46861 36.7859C7.85616 37.1735 8.04859 37.6509 8.04591 38.2181V42.2411H12.0689C12.6388 42.2411 13.1168 42.4342 13.5031 42.8204C13.8893 43.2066 14.0817 43.684 14.0803 44.2526C14.079 44.8211 13.8859 45.2992 13.501 45.6867C13.1162 46.0743 12.6388 46.2667 12.0689 46.264H8.04591C6.9396 46.264 5.99286 45.8705 5.2057 45.0833C4.41854 44.2961 4.02429 43.3487 4.02295 42.2411ZM40.2296 46.264H36.2066C35.6367 46.264 35.1593 46.0709 34.7745 45.6847C34.3896 45.2985 34.1965 44.8211 34.1952 44.2526C34.1938 43.684 34.3869 43.2066 34.7745 42.8204C35.162 42.4342 35.6394 42.2411 36.2066 42.2411H40.2296V38.2181C40.2296 37.6482 40.4227 37.1708 40.8089 36.7859C41.1951 36.4011 41.6725 36.208 42.2411 36.2066C42.8097 36.2053 43.2877 36.3984 43.6753 36.7859C44.0628 37.1735 44.2552 37.6509 44.2526 38.2181V42.2411C44.2526 43.3474 43.859 44.2948 43.0718 45.0833C42.2847 45.8718 41.3372 46.2654 40.2296 46.264ZM14.0803 36.2066H34.1952V12.0689H14.0803V36.2066ZM14.0803 40.2296C12.974 40.2296 12.0273 39.836 11.2401 39.0489C10.453 38.2617 10.0587 37.3143 10.0574 36.2066V12.0689C10.0574 10.9626 10.4516 10.0158 11.2401 9.22866C12.0286 8.44151 12.9754 8.04726 14.0803 8.04591H34.1952C35.3015 8.04591 36.2489 8.44016 37.0374 9.22866C37.8259 10.0172 38.2195 10.9639 38.2181 12.0689V36.2066C38.2181 37.313 37.8245 38.2604 37.0374 39.0489C36.2502 39.8374 35.3028 40.2309 34.1952 40.2296H14.0803ZM20.1148 20.1148H28.1607C28.7306 20.1148 29.2087 19.9217 29.5949 19.5355C29.9811 19.1493 30.1735 18.6719 30.1722 18.1033C30.1708 17.5347 29.9777 17.0573 29.5929 16.6711C29.208 16.2849 28.7306 16.0918 28.1607 16.0918H20.1148C19.5449 16.0918 19.0675 16.2849 18.6826 16.6711C18.2978 17.0573 18.1047 17.5347 18.1033 18.1033C18.102 18.6719 18.2951 19.15 18.6826 19.5375C19.0702 19.925 19.5476 20.1175 20.1148 20.1148ZM20.1148 26.1492H28.1607C28.7306 26.1492 29.2087 25.9561 29.5949 25.5699C29.9811 25.1837 30.1735 24.7063 30.1722 24.1378C30.1708 23.5692 29.9777 23.0918 29.5929 22.7056C29.208 22.3194 28.7306 22.1263 28.1607 22.1263H20.1148C19.5449 22.1263 19.0675 22.3194 18.6826 22.7056C18.2978 23.0918 18.1047 23.5692 18.1033 24.1378C18.102 24.7063 18.2951 25.1844 18.6826 25.5719C19.0702 25.9595 19.5476 26.1519 20.1148 26.1492ZM20.1148 32.1837H28.1607C28.7306 32.1837 29.2087 31.9906 29.5949 31.6044C29.9811 31.2182 30.1735 30.7408 30.1722 30.1722C30.1708 29.6036 29.9777 29.1262 29.5929 28.74C29.208 28.3538 28.7306 28.1607 28.1607 28.1607H20.1148C19.5449 28.1607 19.0675 28.3538 18.6826 28.74C18.2978 29.1262 18.1047 29.6036 18.1033 30.1722C18.102 30.7408 18.2951 31.2188 18.6826 31.6064C19.0702 31.9939 19.5476 32.1864 20.1148 32.1837Z" fill="#848181"/>
</svg>
