<svg width="49" height="49" viewBox="0 0 49 49" fill="none" xmlns="http://www.w3.org/2000/svg">
<path d="M18.1033 12.0689V16.0919H4.02295V12.0689H18.1033ZM18.1033 22.1263V26.1493H4.02295V22.1263H18.1033ZM36.2066 32.1837V36.2067H4.02295V32.1837H36.2066ZM38.8417 23.132C39.7267 21.7642 40.2296 20.1148 40.2296 18.3246C40.2296 13.2959 36.2066 9.27295 31.1779 9.27295C26.1492 9.27295 22.1263 13.2959 22.1263 18.3246C22.1263 23.3533 26.1492 27.3763 31.1779 27.3763C32.9279 27.3763 34.5773 26.8734 35.9653 26.0085L42.2411 32.1837L45.037 29.3878L38.8417 23.132ZM31.1779 23.3533C28.4021 23.3533 26.1492 21.1206 26.1492 18.3246C26.1492 15.5287 28.4021 13.2959 31.1779 13.2959C32.5116 13.2959 33.7907 13.8257 34.7338 14.7688C35.6768 15.7118 36.2066 16.9909 36.2066 18.3246C36.2066 19.6583 35.6768 20.9374 34.7338 21.8804C33.7907 22.8235 32.5116 23.3533 31.1779 23.3533Z" fill="#848181"/>
</svg>
