<svg width="49" height="49" viewBox="0 0 49 49" fill="none" xmlns="http://www.w3.org/2000/svg">
<path d="M24.1377 34.1952C23.0708 34.1952 22.0475 33.7713 21.2931 33.0169C20.5386 32.2624 20.1148 31.2392 20.1148 30.1722C20.1148 27.9395 21.905 26.1492 24.1377 26.1492C25.2047 26.1492 26.2279 26.5731 26.9824 27.3275C27.7368 28.082 28.1607 29.1052 28.1607 30.1722C28.1607 31.2392 27.7368 32.2624 26.9824 33.0169C26.2279 33.7713 25.2047 34.1952 24.1377 34.1952ZM36.2066 40.2296V20.1148H12.0689V40.2296H36.2066ZM36.2066 16.0918C37.2736 16.0918 38.2968 16.5157 39.0513 17.2701C39.8057 18.0246 40.2296 19.0478 40.2296 20.1148V40.2296C40.2296 41.2966 39.8057 42.3198 39.0513 43.0743C38.2968 43.8287 37.2736 44.2526 36.2066 44.2526H12.0689C11.0019 44.2526 9.97865 43.8287 9.2242 43.0743C8.46974 42.3198 8.0459 41.2966 8.0459 40.2296V20.1148C8.0459 17.8821 9.83612 16.0918 12.0689 16.0918H14.0803V12.0689C14.0803 9.40149 15.14 6.84335 17.0261 4.95722C18.9122 3.07109 21.4703 2.01147 24.1377 2.01147C25.4585 2.01147 26.7663 2.27162 27.9865 2.77705C29.2068 3.28248 30.3155 4.0233 31.2494 4.95722C32.1833 5.89114 32.9241 6.99985 33.4296 8.22008C33.935 9.4403 34.1951 10.7481 34.1951 12.0689V16.0918H36.2066ZM24.1377 6.03444C22.5373 6.03444 21.0024 6.67021 19.8707 7.80188C18.7391 8.93356 18.1033 10.4684 18.1033 12.0689V16.0918H30.1722V12.0689C30.1722 10.4684 29.5364 8.93356 28.4047 7.80188C27.2731 6.67021 25.7382 6.03444 24.1377 6.03444Z" fill="#848181"/>
</svg>
