<svg width="49" height="49" viewBox="0 0 49 49" fill="none" xmlns="http://www.w3.org/2000/svg">
<path d="M38.2181 6.03444H29.8101C28.9653 3.70112 26.7527 2.01147 24.1377 2.01147C21.5228 2.01147 19.3102 3.70112 18.4654 6.03444H10.0574C8.99043 6.03444 7.96717 6.45828 7.21272 7.21273C6.45827 7.96719 6.03442 8.99044 6.03442 10.0574V38.2181C6.03442 39.2851 6.45827 40.3083 7.21272 41.0628C7.96717 41.8172 8.99043 42.2411 10.0574 42.2411H38.2181C39.2851 42.2411 40.3083 41.8172 41.0628 41.0628C41.8172 40.3083 42.2411 39.2851 42.2411 38.2181V10.0574C42.2411 8.99044 41.8172 7.96719 41.0628 7.21273C40.3083 6.45828 39.2851 6.03444 38.2181 6.03444ZM24.1377 6.03444C24.6712 6.03444 25.1828 6.24636 25.5601 6.62358C25.9373 7.00081 26.1492 7.51244 26.1492 8.04592C26.1492 8.57939 25.9373 9.09102 25.5601 9.46825C25.1828 9.84547 24.6712 10.0574 24.1377 10.0574C23.6043 10.0574 23.0926 9.84547 22.7154 9.46825C22.3382 9.09102 22.1263 8.57939 22.1263 8.04592C22.1263 7.51244 22.3382 7.00081 22.7154 6.62358C23.0926 6.24636 23.6043 6.03444 24.1377 6.03444ZM14.0803 14.0804H34.1951V10.0574H38.2181V38.2181H10.0574V10.0574H14.0803V14.0804ZM15.0861 27.155L18.1033 24.1378L22.1263 28.1607L31.1779 19.1091L34.1951 22.1263L22.1263 34.1952L15.0861 27.155Z" fill="#848181"/>
</svg>
