<svg width="42" height="42" viewBox="0 0 42 42" fill="none" xmlns="http://www.w3.org/2000/svg">
<path fill-rule="evenodd" clip-rule="evenodd" d="M14.301 27.7006C21.0298 34.4293 27.265 35.1661 29.0955 35.2343C31.3075 35.3148 33.565 33.5088 34.5415 31.6591C32.984 29.8321 30.9558 28.4146 28.735 26.8781C27.4243 28.1871 25.809 30.6196 23.6583 29.7481C22.435 29.2563 19.4145 27.8651 16.7755 25.2243C14.1365 22.5836 12.7453 19.5648 12.25 18.3433C11.3785 16.1891 13.818 14.5703 15.1288 13.2596C13.5923 11.0021 12.1993 8.92133 10.3758 7.44258C8.49975 8.42258 6.68325 10.6626 6.7655 12.9043C6.83375 14.7348 7.5705 20.9701 14.301 27.7006ZM28.966 38.7326C26.446 38.6398 19.3043 37.6528 11.8248 30.1751C4.347 22.6956 3.36175 15.5556 3.26725 13.0338C3.12725 9.19083 6.07075 5.45808 9.471 4.00033C9.88046 3.82352 10.3289 3.7562 10.7722 3.80499C11.2155 3.85377 11.6385 4.01697 11.9998 4.27858C14.8138 6.33133 16.7545 9.44108 18.4223 11.8771C18.7692 12.3836 18.9281 12.9955 18.8716 13.6069C18.815 14.2182 18.5465 14.7905 18.1125 15.2248L15.7395 17.5996C16.2908 18.8158 17.4125 20.9123 19.25 22.7498C21.0875 24.5873 23.184 25.7091 24.402 26.2603L26.7733 23.8873C27.2087 23.4515 27.7835 23.1827 28.3971 23.128C29.0108 23.0733 29.6241 23.2362 30.1297 23.5881C32.6147 25.3101 35.5338 27.2228 37.6618 29.9476C37.9446 30.3114 38.1245 30.7445 38.1827 31.2017C38.2409 31.6589 38.1752 32.1232 37.9925 32.5463C36.5278 35.9641 32.8213 38.8743 28.966 38.7326Z" fill="#848181"/>
</svg>
