<svg width="49" height="49" viewBox="0 0 49 49" fill="none" xmlns="http://www.w3.org/2000/svg">
<path fill-rule="evenodd" clip-rule="evenodd" d="M17.6004 8.0459C17.6004 7.64579 17.4415 7.26207 17.1586 6.97915C16.8757 6.69623 16.4919 6.53729 16.0918 6.53729C15.6917 6.53729 15.308 6.69623 15.0251 6.97915C14.7422 7.26207 14.5832 7.64579 14.5832 8.0459V10.5603H14.0803C13.1468 10.5603 12.2514 10.9311 11.5913 11.5913C10.9311 12.2514 10.5603 13.1468 10.5603 14.0803V14.5832H8.0459C7.64579 14.5832 7.26207 14.7422 6.97915 15.0251C6.69623 15.308 6.53729 15.6917 6.53729 16.0918C6.53729 16.4919 6.69623 16.8757 6.97915 17.1586C7.26207 17.4415 7.64579 17.6004 8.0459 17.6004H10.5603V22.6291H8.0459C7.64579 22.6291 7.26207 22.7881 6.97915 23.071C6.69623 23.3539 6.53729 23.7376 6.53729 24.1377C6.53729 24.5379 6.69623 24.9216 6.97915 25.2045C7.26207 25.4874 7.64579 25.6464 8.0459 25.6464H10.5603V30.6751H8.0459C7.64579 30.6751 7.26207 30.834 6.97915 31.1169C6.69623 31.3998 6.53729 31.7836 6.53729 32.1837C6.53729 32.5838 6.69623 32.9675 6.97915 33.2504C7.26207 33.5333 7.64579 33.6923 8.0459 33.6923H10.5603V34.1951C10.5603 36.1382 12.1373 37.7152 14.0803 37.7152H14.5832V40.2296C14.5832 40.6297 14.7422 41.0134 15.0251 41.2963C15.308 41.5793 15.6917 41.7382 16.0918 41.7382C16.4919 41.7382 16.8757 41.5793 17.1586 41.2963C17.4415 41.0134 17.6004 40.6297 17.6004 40.2296V37.7152H22.6291V40.2296C22.6291 40.6297 22.7881 41.0134 23.071 41.2963C23.3539 41.5793 23.7376 41.7382 24.1377 41.7382C24.5379 41.7382 24.9216 41.5793 25.2045 41.2963C25.4874 41.0134 25.6464 40.6297 25.6464 40.2296V37.7152H30.6751V40.2296C30.6751 40.6297 30.834 41.0134 31.1169 41.2963C31.3998 41.5793 31.7836 41.7382 32.1837 41.7382C32.5838 41.7382 32.9675 41.5793 33.2504 41.2963C33.5333 41.0134 33.6923 40.6297 33.6923 40.2296V37.7152H34.1951C35.1287 37.7152 36.0241 37.3444 36.6842 36.6842C37.3444 36.0241 37.7152 35.1287 37.7152 34.1951V33.6923H40.2296C40.6297 33.6923 41.0134 33.5333 41.2963 33.2504C41.5793 32.9675 41.7382 32.5838 41.7382 32.1837C41.7382 31.7836 41.5793 31.3998 41.2963 31.1169C41.0134 30.834 40.6297 30.6751 40.2296 30.6751H37.7152V25.6464H40.2296C40.6297 25.6464 41.0134 25.4874 41.2963 25.2045C41.5793 24.9216 41.7382 24.5379 41.7382 24.1377C41.7382 23.7376 41.5793 23.3539 41.2963 23.071C41.0134 22.7881 40.6297 22.6291 40.2296 22.6291H37.7152V17.6004H40.2296C40.6297 17.6004 41.0134 17.4415 41.2963 17.1586C41.5793 16.8757 41.7382 16.4919 41.7382 16.0918C41.7382 15.6917 41.5793 15.308 41.2963 15.0251C41.0134 14.7422 40.6297 14.5832 40.2296 14.5832H37.7152V14.0803C37.7152 13.1468 37.3444 12.2514 36.6842 11.5913C36.0241 10.9311 35.1287 10.5603 34.1951 10.5603H33.6923V8.0459C33.6923 7.64579 33.5333 7.26207 33.2504 6.97915C32.9675 6.69623 32.5838 6.53729 32.1837 6.53729C31.7836 6.53729 31.3998 6.69623 31.1169 6.97915C30.834 7.26207 30.6751 7.64579 30.6751 8.0459V10.5603H25.6464V8.0459C25.6464 7.64579 25.4874 7.26207 25.2045 6.97915C24.9216 6.69623 24.5379 6.53729 24.1377 6.53729C23.7376 6.53729 23.3539 6.69623 23.071 6.97915C22.7881 7.26207 22.6291 7.64579 22.6291 8.0459V10.5603H17.6004V8.0459ZM13.5775 14.0803C13.5775 13.947 13.6305 13.8191 13.7248 13.7248C13.8191 13.6305 13.947 13.5775 14.0803 13.5775H34.1951C34.3285 13.5775 34.4564 13.6305 34.5507 13.7248C34.645 13.8191 34.698 13.947 34.698 14.0803V34.1951C34.698 34.3285 34.645 34.4564 34.5507 34.5507C34.4564 34.645 34.3285 34.698 34.1951 34.698H14.0803C13.947 34.698 13.8191 34.645 13.7248 34.5507C13.6305 34.4564 13.5775 34.3285 13.5775 34.1951V14.0803ZM23.7334 29.6754L23.1803 28.1225H19.103L18.5499 29.6754C18.4154 30.0523 18.1368 30.3603 17.7752 30.5318C17.4136 30.7032 16.9988 30.724 16.6219 30.5896C16.2449 30.4551 15.9369 30.1765 15.7654 29.8149C15.594 29.4533 15.5732 29.0385 15.7076 28.6616L19.1271 19.0668L19.1332 19.0487L19.1412 19.0286C19.447 18.2401 20.1792 17.5984 21.1406 17.5984C22.1041 17.5984 22.8343 18.2401 23.1421 19.0306L23.1481 19.0487L23.1561 19.0688L26.5757 28.6636C26.7035 29.0389 26.6784 29.4495 26.5059 29.8065C26.3333 30.1635 26.0271 30.4383 25.6536 30.5712C25.28 30.7042 24.8691 30.6848 24.5097 30.5171C24.1504 30.3495 23.8715 30.0471 23.7334 29.6754ZM21.1406 22.4038L22.1041 25.1053H20.1771L21.1406 22.4038ZM28.6636 19.105C28.6636 18.7049 28.8225 18.3212 29.1054 18.0383C29.3884 17.7554 29.7721 17.5964 30.1722 17.5964C30.5723 17.5964 30.956 17.7554 31.2389 18.0383C31.5219 18.3212 31.6808 18.7049 31.6808 19.105V29.1685C31.6808 29.5686 31.5219 29.9523 31.2389 30.2352C30.956 30.5181 30.5723 30.6771 30.1722 30.6771C29.7721 30.6771 29.3884 30.5181 29.1054 30.2352C28.8225 29.9523 28.6636 29.5686 28.6636 29.1685V19.105Z" fill="#848181"/>
</svg>
