<svg width="49" height="49" viewBox="0 0 49 49" fill="none" xmlns="http://www.w3.org/2000/svg">
<path d="M20.0605 36.2066H28.2151C28.4806 33.7888 29.7136 31.7955 31.715 29.615C31.9423 29.3696 33.3886 27.8711 33.5596 27.6578C34.9802 25.883 35.8707 23.7429 36.1285 21.4842C36.3862 19.2254 36.0007 16.9397 35.0164 14.8905C34.032 12.8412 32.4889 11.1116 30.5647 9.90085C28.6405 8.69013 26.4134 8.04753 24.14 8.04704C21.8665 8.04656 19.6392 8.68821 17.7144 9.89811C15.7897 11.108 14.2458 12.8369 13.2606 14.8858C12.2754 16.9347 11.889 19.2202 12.1457 21.479C12.4025 23.7379 13.2921 25.8783 14.712 27.6538C14.885 27.869 16.3353 29.3696 16.5585 29.613C18.562 31.7934 19.795 33.7888 20.0605 36.2066ZM28.1607 40.2296H20.1148V42.2411H28.1607V40.2296ZM11.5741 30.1722C9.67965 27.8053 8.49239 24.9513 8.14906 21.9391C7.80573 18.9269 8.32031 15.879 9.63351 13.1465C10.9467 10.414 13.0051 8.10801 15.5716 6.49422C18.1381 4.88043 21.1083 4.02448 24.14 4.02496C27.1717 4.02545 30.1415 4.88235 32.7075 6.49696C35.2735 8.11158 37.3312 10.4182 38.6435 13.1512C39.9558 15.8841 40.4694 18.9322 40.1251 21.9443C39.7808 24.9563 38.5927 27.8099 36.6975 30.1762C35.4503 31.7291 32.1837 34.1952 32.1837 37.2124V42.2411C32.1837 43.308 31.7599 44.3313 31.0054 45.0857C30.251 45.8402 29.2277 46.264 28.1607 46.264H20.1148C19.0479 46.264 18.0246 45.8402 17.2702 45.0857C16.5157 44.3313 16.0919 43.308 16.0919 42.2411V37.2124C16.0919 34.1952 12.8232 31.7291 11.5741 30.1722ZM26.1493 20.1228H31.178L22.1263 32.1917V24.1458H17.0976L26.1493 12.0689V20.1228Z" fill="#848181"/>
</svg>
