<svg width="42" height="42" viewBox="0 0 42 42" fill="none" xmlns="http://www.w3.org/2000/svg">
<path fill-rule="evenodd" clip-rule="evenodd" d="M35.0638 0.30905C35.9881 -0.0256889 36.9887 -0.0900507 37.9483 0.123507C38.908 0.337064 39.7868 0.819694 40.482 1.51484C41.1771 2.20999 41.6598 3.08887 41.8733 4.04848C42.0869 5.0081 42.0225 6.0087 41.6878 6.93305L31.1698 38.448C30.8932 39.2883 30.4052 40.0434 29.7527 40.6407C29.1002 41.238 28.3051 41.6576 27.4438 41.859C26.5835 42.0696 25.6833 42.0526 24.8316 41.8095C23.98 41.5665 23.2063 41.1059 22.5868 40.473L17.1478 35.07L11.4778 37.9981C11.1885 38.1471 10.8654 38.2182 10.5402 38.2045C10.2151 38.1908 9.89915 38.0927 9.62342 37.9199C9.34768 37.7471 9.12168 37.5055 8.96762 37.2188C8.81357 36.9322 8.73676 36.6104 8.74477 36.285L8.98477 26.889L1.49977 19.401C0.902416 18.8057 0.462035 18.0715 0.218059 17.2641C-0.0259175 16.4568 -0.0658731 15.6016 0.10177 14.775C0.268442 13.8741 0.671985 13.0338 1.27093 12.3405C1.86988 11.6472 2.64263 11.1258 3.50977 10.83L3.52477 10.824L35.0638 0.30905ZM37.1338 3.78005C36.8466 3.7159 36.5466 3.74317 36.2758 3.85805L4.71577 14.379C4.47763 14.461 4.26577 14.6052 4.10222 14.7967C3.93868 14.9882 3.82941 15.22 3.78577 15.468L3.77677 15.51C3.73025 15.7305 3.73965 15.9591 3.8041 16.175C3.86855 16.3909 3.98601 16.5872 4.14577 16.746L9.99577 22.59L28.9858 10.059C29.2998 9.85327 29.6795 9.77271 30.05 9.83328C30.4205 9.89384 30.7548 10.0911 30.9869 10.3862C31.219 10.6812 31.332 11.0526 31.3037 11.4269C31.2754 11.8012 31.1077 12.1513 30.8338 12.408L12.6748 29.4L12.5758 33.21L16.6408 31.11C16.9932 30.9272 17.3945 30.8609 17.787 30.9207C18.1795 30.9806 18.5429 31.1635 18.8248 31.443L25.2388 37.824L25.2568 37.842C25.4215 38.0127 25.6283 38.137 25.8564 38.2023C26.0844 38.2676 26.3257 38.2716 26.5558 38.214L26.5798 38.208C26.817 38.1538 27.0362 38.0392 27.216 37.8751C27.3958 37.7111 27.5301 37.5033 27.6058 37.272V37.266L38.1388 5.71805L38.1598 5.65805C38.2317 5.46794 38.2616 5.26453 38.2475 5.06176C38.2335 4.85899 38.1758 4.66166 38.0783 4.48329C37.9809 4.30492 37.846 4.14973 37.683 4.02835C37.5199 3.90696 37.3326 3.82226 37.1338 3.78005Z" fill="#848181"/>
</svg>
