<svg width="49" height="49" viewBox="0 0 49 49" fill="none" xmlns="http://www.w3.org/2000/svg">
<path d="M29.609 17.6809L20.9797 26.3303L17.6608 23.0113C17.4805 22.8008 17.2586 22.6297 17.009 22.509C16.7595 22.3883 16.4876 22.3204 16.2106 22.3097C15.9336 22.299 15.6574 22.3457 15.3992 22.4468C15.1411 22.548 14.9067 22.7013 14.7107 22.8974C14.5146 23.0934 14.3612 23.3278 14.2601 23.586C14.159 23.8441 14.1123 24.1203 14.123 24.3973C14.1337 24.6744 14.2016 24.9462 14.3223 25.1957C14.443 25.4453 14.614 25.6672 14.8246 25.8475L19.5516 30.5946C19.7395 30.781 19.9624 30.9285 20.2075 31.0286C20.4526 31.1287 20.715 31.1795 20.9797 31.1779C21.5074 31.1757 22.0131 30.9662 22.3878 30.5946L32.4452 20.5372C32.6337 20.3502 32.7833 20.1277 32.8855 19.8826C32.9876 19.6375 33.0402 19.3746 33.0402 19.109C33.0402 18.8435 32.9876 18.5806 32.8855 18.3355C32.7833 18.0904 32.6337 17.8679 32.4452 17.6809C32.0683 17.3063 31.5585 17.096 31.0271 17.096C30.4957 17.096 29.9859 17.3063 29.609 17.6809ZM24.1378 4.02295C20.1594 4.02295 16.2704 5.20266 12.9626 7.4129C9.65471 9.62315 7.07655 12.7646 5.55411 16.4401C4.03166 20.1156 3.63332 24.1601 4.40946 28.062C5.18559 31.9638 7.10134 35.548 9.91445 38.3611C12.7276 41.1742 16.3117 43.0899 20.2136 43.8661C24.1154 44.6422 28.1599 44.2438 31.8354 42.7214C35.5109 41.199 38.6524 38.6208 40.8626 35.3129C43.0728 32.0051 44.2526 28.1161 44.2526 24.1378C44.2526 21.4962 43.7323 18.8806 42.7214 16.4401C41.7105 13.9997 40.2289 11.7823 38.3611 9.91444C36.4932 8.04661 34.2758 6.56496 31.8354 5.5541C29.3949 4.54323 26.7793 4.02295 24.1378 4.02295ZM24.1378 40.2296C20.9551 40.2296 17.8439 39.2858 15.1976 37.5176C12.5513 35.7494 10.4888 33.2362 9.27084 30.2958C8.05288 27.3554 7.73421 24.1199 8.35512 20.9984C8.97603 17.8769 10.5086 15.0096 12.7591 12.7591C15.0096 10.5086 17.8769 8.97602 20.9984 8.35511C24.1199 7.7342 27.3554 8.05288 30.2958 9.27083C33.2362 10.4888 35.7494 12.5513 37.5176 15.1976C39.2858 17.8439 40.2296 20.9551 40.2296 24.1378C40.2296 28.4056 38.5342 32.4986 35.5164 35.5164C32.4986 38.5342 28.4056 40.2296 24.1378 40.2296Z" fill="#848181"/>
</svg>
